<svg xmlns="http://www.w3.org/2000/svg" width="100" height="100" fill="none" viewBox="0 0 100 100"><g clip-path="url(#a)"><path fill="#275687" d="m50.3047 50.002 43.30021-24.9994v49.9988L50.3047 100.0008z"/><path fill="#326698" d="m53.7695 52.0018 4.5033-2.5999v41.9989l-4.5033 2.6zm7.9674-4.6002 4.5033-2.6v41.999l-4.5033 2.5999zm7.9673-4.5999 4.5032-2.6v41.999l-4.5032 2.6zm7.9672-4.5999 4.5032-2.6v41.999l-4.5032 2.6zm7.9673-4.5999 4.5032-2.5999v41.9989l-4.5032 2.6z"/><path fill="#376ba1" d="M50.3047 50.002 7.00449 25.0026v49.9988l43.30021 24.9994z"/><path fill="#3b75ae" d="m46.8409 52.0015-16.4541-9.4997v41.9989l16.4541 9.4998zM26.9228 40.5017l-16.454-9.4997v41.9989l16.454 9.4998z"/><path fill="#000" stroke="#000" stroke-width=".05" d="M5.91869 35.7382c1.83272.2163 2.80336-.3407 3.16949-.7021l1.41222 5.8736-4.20525 2.383c.06277-1.2424-.18829-1.5031-.37646-1.7415-.4016-.5088-1.06713-1.0477-1.06713-1.9345v-2.9229c-.00003-.4598.1883-1.0341 1.06713-.9556ZM71.5142 60.3526c-1.0043-5.1135-3.6927-4.2152-5.3036-3.1002 0 0-14.2528 8.8968-15.7851 9.1974-1.5324.3006-2.9499-.0673-2.9499-.0673l-5.335-1.2996.5335-7.2103 3.452.3085c1.3808 1.2005 2.4795 1.7649 5.084.7827 2.6046-.9822 13.8706-7.0656 17.5738-6.735 3.7032.3307 5.2408 2.9313 5.586 4.8671.3452 1.9357.4192 3.3929 0 3.9372-.6822.8857-2.6592 1.1887-2.8557-.6805Z"/><path fill="#000" d="M25.9371 53.3269c0 6.4606-4.5356 9.0793-10.1306 5.849C10.2114 55.9456 5.67578 48.0896 5.67578 41.629c0-6.4605 4.53562-9.0792 10.13072-5.8489 5.595 3.2303 10.1306 11.0863 10.1306 17.5468M49.0382 67.521c0 6.4605-4.5357 9.0792-10.1307 5.8489S28.7768 62.2836 28.7768 55.8231c0-6.4606 4.5357-9.0793 10.1307-5.849S49.0382 61.0604 49.0382 67.521"/><path fill="#000" d="M29.501 54.9995c-.023-.0701-.062-.1846-.1167-.331-.1117-.2986-.2788-.7006-.4965-1.1226-.4512-.8747-.9613-1.5423-1.5587-1.8872-.5975-.345-1.1081-.2669-1.5595.0869-.2176.1706-.3839.3802-.4956.5498-.0548.0832-.0937.1527-.1167.1963-.0112.0212-.0179.0366-.0211.0435l-.0009.0004c.0004-.0008.0012-.0018.0017-.0029l.0009-.0024v-.001c-.0049-.0058-.0919-.0978-1.6061-1.6753-1.4994-1.5622-1.5996-1.6668-1.606-1.6743v-.002c.0003-.0008.0013-.0011.0017-.0019.0008-.0018.0015-.0042.0025-.0064a1 1 0 0 1 .0068-.0146c.0051-.0113.0109-.0259.0186-.042.0154-.0323.0366-.0737.0626-.1231.0518-.0984.1257-.2286.2224-.3754.1914-.2907.4836-.6635.888-.9805.793-.6217 2.1813-1.141 4.2007.0249 2.0195 1.1659 3.4078 3.2883 4.2008 4.8257.4044.784.6966 1.4942.888 2.0058.0967.2585.1706.4741.2224.6324.026.0793.0472.1453.0626.1953.0077.025.0135.0463.0186.0634.0025.0085.0049.016.0068.0225.0009.0033.0017.0065.0025.0093.0004.0013.0014.0027.0017.0039v.0019c-.0057.0002-.0999-.0101-1.606-.1801-1.5925-.1798-1.607-.1805-1.6069-.1797zm.0211.0679v.001z"/><path fill="#fff" d="M46.5489 66.1201c0 4.8972-3.4381 6.8822-7.6793 4.4336-4.2411-2.4486-7.6792-8.4036-7.6792-13.3008 0-4.8973 3.4381-6.8823 7.6792-4.4337 4.2412 2.4487 7.6793 8.4037 7.6793 13.3009"/><path fill="#000" d="M40.4119 61.8981c0 1.6687-1.1715 2.3451-2.6167 1.5108-1.4451-.8344-2.6166-2.8635-2.6166-4.5322 0-1.6688 1.1715-2.3451 2.6166-1.5108 1.4452.8344 2.6167 2.8635 2.6167 4.5322"/><path fill="#fff" d="M8.09375 42.999c0 4.8973 3.43815 10.8523 7.67925 13.3009s7.6793.4636 7.6793-4.4336c0-4.8973-3.4382-10.8523-7.6793-13.3009s-7.67925-.4636-7.67925 4.4336"/><path fill="#000" d="M13.5823 45.7831c0 1.6688 1.1715 3.6979 2.6167 4.5323 1.4451.8343 2.6166.1579 2.6166-1.5108s-1.1715-3.6978-2.6166-4.5322c-1.4452-.8343-2.6167-.158-2.6167 1.5107"/><path fill="#4786bc" d="M7 24.998 50.30021-.0014 93.60042 24.998l-43.3002 24.9994z"/><path fill="#3f7bb5" d="M13.9297 24.998 50.30188 3.9985 86.67407 24.998 50.30188 45.9975z"/></g><defs><clipPath id="a"><path fill="#fff" d="M0 0h100v100H0z"/></clipPath></defs></svg>